<svg xmlns="http://www.w3.org/2000/svg" xmlns:xlink="http://www.w3.org/1999/xlink" width="500" zoomAndPan="magnify" viewBox="0 0 375 149.999998" height="200" preserveAspectRatio="xMidYMid meet" version="1.0"><defs><g/></defs><g fill="#737373" fill-opacity="0.302"><g transform="translate(53.657631, 135.734286)"><g><path d="M 97.96875 -30.65625 C 98.59375 -32.382812 99.507812 -33.644531 100.71875 -34.4375 C 101.925781 -35.226562 103.1875 -35.625 104.5 -35.625 C 106.082031 -35.625 107.507812 -35.125 108.78125 -34.125 C 110.0625 -33.125 110.703125 -31.722656 110.703125 -29.921875 C 110.703125 -29.578125 110.664062 -29.210938 110.59375 -28.828125 C 110.53125 -28.453125 110.429688 -28.0625 110.296875 -27.65625 C 108.148438 -20.957031 105.578125 -15.570312 102.578125 -11.5 C 99.578125 -7.425781 96.28125 -4.488281 92.6875 -2.6875 C 89.09375 -0.894531 85.398438 0 81.609375 0 C 78.296875 0 75.253906 -0.632812 72.484375 -1.90625 C 69.722656 -3.1875 67.515625 -5.035156 65.859375 -7.453125 C 64.203125 -9.867188 63.375 -12.769531 63.375 -16.15625 C 63.375 -18.707031 63.859375 -21.363281 64.828125 -24.125 L 79.328125 -64.203125 C 80.296875 -66.765625 80.226562 -68.835938 79.125 -70.421875 C 78.019531 -72.003906 76.46875 -72.796875 74.46875 -72.796875 C 71.90625 -72.796875 69.625 -71.707031 67.625 -69.53125 C 65.625 -67.363281 64.003906 -64.519531 62.765625 -61 L 43.390625 -6.734375 C 42.566406 -4.378906 41.289062 -2.664062 39.5625 -1.59375 C 37.832031 -0.53125 36.070312 0 34.28125 0 C 32.34375 0 30.597656 -0.601562 29.046875 -1.8125 C 27.492188 -3.019531 26.71875 -4.726562 26.71875 -6.9375 C 26.71875 -8.039062 26.992188 -9.351562 27.546875 -10.875 L 45.671875 -60.6875 C 48.566406 -68.832031 47.253906 -72.90625 41.734375 -72.90625 C 36.972656 -72.90625 33.316406 -69.382812 30.765625 -62.34375 L 10.765625 -6.625 C 9.941406 -4.34375 8.679688 -2.664062 6.984375 -1.59375 C 5.296875 -0.53125 3.554688 0 1.765625 0 C -0.242188 0 -2.023438 -0.617188 -3.578125 -1.859375 C -5.128906 -3.109375 -5.90625 -4.867188 -5.90625 -7.140625 C -5.90625 -7.628906 -5.882812 -8.113281 -5.84375 -8.59375 C -5.8125 -9.082031 -5.691406 -9.566406 -5.484375 -10.046875 L 21.125 -84.609375 C 21.882812 -86.609375 23.125 -87.988281 24.84375 -88.75 C 26.570312 -89.507812 28.195312 -89.890625 29.71875 -89.890625 C 31.71875 -89.890625 33.390625 -89.441406 34.734375 -88.546875 C 36.085938 -87.648438 36.972656 -86.546875 37.390625 -85.234375 C 37.523438 -85.441406 38.078125 -85.925781 39.046875 -86.6875 C 40.015625 -87.445312 41.328125 -88.171875 42.984375 -88.859375 C 44.640625 -89.546875 46.570312 -89.890625 48.78125 -89.890625 C 52.300781 -89.890625 55.007812 -89.234375 56.90625 -87.921875 C 58.800781 -86.609375 60.546875 -84.742188 62.140625 -82.328125 C 64.554688 -84.890625 67.472656 -86.789062 70.890625 -88.03125 C 74.304688 -89.269531 77.566406 -89.890625 80.671875 -89.890625 C 84.191406 -89.890625 87.28125 -89.144531 89.9375 -87.65625 C 92.601562 -86.175781 94.675781 -84.160156 96.15625 -81.609375 C 97.644531 -79.054688 98.390625 -76.15625 98.390625 -72.90625 C 98.390625 -71.457031 98.265625 -70.128906 98.015625 -68.921875 C 97.773438 -67.710938 97.445312 -66.554688 97.03125 -65.453125 L 80.359375 -19.890625 C 80.148438 -19.265625 79.976562 -18.675781 79.84375 -18.125 C 79.707031 -17.570312 79.640625 -17.050781 79.640625 -16.5625 C 79.640625 -15.53125 79.945312 -14.703125 80.5625 -14.078125 C 81.1875 -13.460938 82.019531 -13.15625 83.0625 -13.15625 C 85.476562 -13.15625 88.015625 -14.550781 90.671875 -17.34375 C 93.328125 -20.144531 95.757812 -24.582031 97.96875 -30.65625 Z M 97.96875 -30.65625 "/></g></g></g><g fill="#737373" fill-opacity="0.302"><g transform="translate(148.005977, 135.734286)"><g><path d="M 43.8125 -21.640625 C 44.019531 -21.578125 44.257812 -21.546875 44.53125 -21.546875 C 44.8125 -21.546875 45.050781 -21.546875 45.25 -21.546875 C 48.289062 -21.546875 50.96875 -22.5625 53.28125 -24.59375 C 55.59375 -26.632812 57.300781 -29.242188 58.40625 -32.421875 C 58.957031 -34.347656 59.890625 -35.742188 61.203125 -36.609375 C 62.515625 -37.472656 63.863281 -37.90625 65.25 -37.90625 C 66.757812 -37.90625 68.101562 -37.382812 69.28125 -36.34375 C 70.457031 -35.3125 71.046875 -33.828125 71.046875 -31.890625 C 71.046875 -31.066406 70.875 -30.035156 70.53125 -28.796875 C 69.351562 -25.203125 67.554688 -21.921875 65.140625 -18.953125 C 62.722656 -15.984375 59.804688 -13.617188 56.390625 -11.859375 C 52.972656 -10.097656 49.226562 -9.21875 45.15625 -9.21875 C 43.007812 -9.21875 40.9375 -9.492188 38.9375 -10.046875 C 36.800781 -6.316406 33.988281 -3.707031 30.5 -2.21875 C 27.007812 -0.738281 23.226562 0 19.15625 0 C 15.632812 0 12.375 -0.6875 9.375 -2.0625 C 6.375 -3.445312 3.941406 -5.453125 2.078125 -8.078125 C 0.210938 -10.703125 -0.71875 -13.8125 -0.71875 -17.40625 C -0.71875 -18.570312 -0.613281 -19.773438 -0.40625 -21.015625 C -0.207031 -22.265625 0.132812 -23.546875 0.625 -24.859375 L 8.1875 -46.1875 C 9.289062 -49.289062 10.976562 -51.929688 13.25 -54.109375 C 15.53125 -56.285156 18.15625 -57.941406 21.125 -59.078125 C 24.09375 -60.222656 27.203125 -60.796875 30.453125 -60.796875 C 34.179688 -60.796875 37.546875 -60.066406 40.546875 -58.609375 C 43.546875 -57.160156 45.925781 -55.109375 47.6875 -52.453125 C 49.445312 -49.796875 50.328125 -46.707031 50.328125 -43.1875 C 50.328125 -41.800781 50.050781 -40.035156 49.5 -37.890625 C 48.945312 -35.753906 48.289062 -33.703125 47.53125 -31.734375 C 46.769531 -29.773438 46.082031 -28.34375 45.46875 -27.4375 C 44.769531 -26.40625 44.078125 -25.648438 43.390625 -25.171875 C 43.597656 -24.203125 43.71875 -23.351562 43.75 -22.625 C 43.789062 -21.90625 43.8125 -21.578125 43.8125 -21.640625 Z M 34.171875 -37.59375 C 34.515625 -38.695312 34.820312 -39.816406 35.09375 -40.953125 C 35.375 -42.097656 35.515625 -43.117188 35.515625 -44.015625 C 35.515625 -45.191406 35.03125 -46.242188 34.0625 -47.171875 C 33.101562 -48.109375 31.828125 -48.578125 30.234375 -48.578125 C 28.648438 -48.578125 27.0625 -48.109375 25.46875 -47.171875 C 23.882812 -46.242188 22.78125 -44.914062 22.15625 -43.1875 L 14.8125 -22.15625 C 14.601562 -21.675781 14.394531 -20.988281 14.1875 -20.09375 C 13.976562 -19.195312 13.875 -18.265625 13.875 -17.296875 C 13.875 -16.054688 14.21875 -14.914062 14.90625 -13.875 C 15.601562 -12.84375 16.953125 -12.328125 18.953125 -12.328125 C 20.535156 -12.328125 22.015625 -12.773438 23.390625 -13.671875 C 24.773438 -14.566406 25.816406 -15.910156 26.515625 -17.703125 C 25.546875 -18.535156 24.679688 -19.484375 23.921875 -20.546875 C 23.160156 -21.617188 22.75 -23.019531 22.6875 -24.75 C 22.6875 -26.820312 23.1875 -28.664062 24.1875 -30.28125 C 25.1875 -31.90625 26.515625 -33.148438 28.171875 -34.015625 C 29.828125 -34.878906 31.585938 -35.207031 33.453125 -35 C 33.515625 -35.414062 33.613281 -35.832031 33.75 -36.25 C 33.894531 -36.664062 34.035156 -37.113281 34.171875 -37.59375 Z M 34.171875 -37.59375 "/></g></g></g><g fill="#737373" fill-opacity="0.302"><g transform="translate(202.067259, 135.734286)"><g><path d="M 27.859375 -70.3125 C 25.515625 -70.3125 23.507812 -71.15625 21.84375 -72.84375 C 20.1875 -74.539062 19.359375 -76.566406 19.359375 -78.921875 C 19.359375 -81.265625 20.1875 -83.242188 21.84375 -84.859375 C 23.507812 -86.484375 25.515625 -87.296875 27.859375 -87.296875 C 30.203125 -87.296875 32.203125 -86.484375 33.859375 -84.859375 C 35.515625 -83.242188 36.34375 -81.265625 36.34375 -78.921875 C 36.34375 -76.566406 35.515625 -74.539062 33.859375 -72.84375 C 32.203125 -71.15625 30.203125 -70.3125 27.859375 -70.3125 Z M 13.875 -17.5 C 13.664062 -16.875 13.5625 -16.320312 13.5625 -15.84375 C 13.5625 -14.875 13.921875 -14.046875 14.640625 -13.359375 C 15.367188 -12.671875 16.320312 -12.328125 17.5 -12.328125 C 19.570312 -12.328125 21.898438 -13.601562 24.484375 -16.15625 C 27.078125 -18.707031 29.582031 -23.332031 32 -30.03125 C 32.625 -31.625 33.570312 -32.796875 34.84375 -33.546875 C 36.125 -34.304688 37.457031 -34.6875 38.84375 -34.6875 C 40.425781 -34.6875 41.851562 -34.21875 43.125 -33.28125 C 44.40625 -32.351562 45.046875 -31.097656 45.046875 -29.515625 C 45.046875 -28.890625 44.941406 -28.269531 44.734375 -27.65625 C 42.316406 -20.539062 39.535156 -14.960938 36.390625 -10.921875 C 33.253906 -6.890625 29.941406 -4.0625 26.453125 -2.4375 C 22.972656 -0.8125 19.539062 0 16.15625 0 C 12.976562 0 10.0625 -0.601562 7.40625 -1.8125 C 4.75 -3.019531 2.609375 -4.757812 0.984375 -7.03125 C -0.640625 -9.3125 -1.453125 -12.078125 -1.453125 -15.328125 C -1.453125 -16.222656 -1.28125 -17.289062 -0.9375 -18.53125 C -0.59375 -19.78125 -0.28125 -20.921875 0 -21.953125 C 1.101562 -25.203125 2.289062 -28.65625 3.5625 -32.3125 C 4.84375 -35.96875 6.125 -39.625 7.40625 -43.28125 C 8.6875 -46.945312 9.878906 -50.398438 10.984375 -53.640625 C 11.804688 -56.054688 12.992188 -57.851562 14.546875 -59.03125 C 16.097656 -60.207031 17.671875 -60.796875 19.265625 -60.796875 C 21.054688 -60.796875 22.660156 -60.207031 24.078125 -59.03125 C 25.492188 -57.851562 26.203125 -56.128906 26.203125 -53.859375 C 26.203125 -53.367188 26.097656 -52.78125 25.890625 -52.09375 C 25.679688 -51.40625 25.472656 -50.710938 25.265625 -50.015625 Z M 13.875 -17.5 "/></g></g></g><g fill="#737373" fill-opacity="0.302"><g transform="translate(230.651387, 135.734286)"><g><path d="M 54.984375 -29.3125 C 55.535156 -30.832031 56.378906 -31.914062 57.515625 -32.5625 C 58.660156 -33.21875 59.859375 -33.546875 61.109375 -33.546875 C 62.765625 -33.546875 64.296875 -33.0625 65.703125 -32.09375 C 67.117188 -31.132812 67.828125 -29.894531 67.828125 -28.375 C 67.828125 -28.164062 67.828125 -27.941406 67.828125 -27.703125 C 67.828125 -27.460938 67.757812 -27.238281 67.625 -27.03125 C 65.207031 -20.050781 61.890625 -14.539062 57.671875 -10.5 C 53.460938 -6.46875 48.664062 -3.585938 43.28125 -1.859375 C 37.90625 -0.140625 32.210938 0.71875 26.203125 0.71875 C 20.128906 0.71875 14.96875 -0.0703125 10.71875 -1.65625 C 6.46875 -3.238281 3.238281 -5.394531 1.03125 -8.125 C -1.175781 -10.851562 -2.28125 -13.910156 -2.28125 -17.296875 C -2.28125 -19.503906 -1.898438 -21.742188 -1.140625 -24.015625 C -0.378906 -26.296875 0.773438 -28.316406 2.328125 -30.078125 C 3.878906 -31.835938 5.796875 -32.992188 8.078125 -33.546875 C 10.148438 -37.421875 12.253906 -41.34375 14.390625 -45.3125 C 16.535156 -49.28125 18.609375 -53.234375 20.609375 -57.171875 C 21.578125 -59.171875 22.972656 -60.671875 24.796875 -61.671875 C 26.628906 -62.671875 28.515625 -63.171875 30.453125 -63.171875 C 33.066406 -63.171875 35.148438 -62.289062 36.703125 -60.53125 C 38.265625 -58.769531 39.046875 -56.785156 39.046875 -54.578125 C 39.046875 -53.054688 38.546875 -51.550781 37.546875 -50.0625 C 36.546875 -48.582031 35.316406 -47.53125 33.859375 -46.90625 C 34.066406 -45.320312 34.617188 -43.664062 35.515625 -41.9375 C 36.421875 -40.21875 37.390625 -38.457031 38.421875 -36.65625 C 39.867188 -34.238281 41.25 -31.628906 42.5625 -28.828125 C 43.875 -26.035156 44.53125 -23.125 44.53125 -20.09375 C 44.53125 -19.40625 44.492188 -18.75 44.421875 -18.125 C 44.359375 -17.5 44.257812 -16.84375 44.125 -16.15625 C 46.539062 -17.539062 48.644531 -19.316406 50.4375 -21.484375 C 52.226562 -23.660156 53.742188 -26.269531 54.984375 -29.3125 Z M 22.15625 -32.109375 C 23.0625 -31.210938 23.71875 -30.191406 24.125 -29.046875 C 24.539062 -27.910156 24.75 -26.753906 24.75 -25.578125 C 24.75 -23.023438 23.921875 -20.695312 22.265625 -18.59375 C 20.609375 -16.488281 18.257812 -15.4375 15.21875 -15.4375 C 14.875 -15.4375 14.492188 -15.453125 14.078125 -15.484375 C 13.671875 -15.515625 13.257812 -15.566406 12.84375 -15.640625 C 13.394531 -14.328125 14.394531 -13.289062 15.84375 -12.53125 C 17.289062 -11.769531 18.878906 -11.390625 20.609375 -11.390625 C 23.367188 -11.523438 25.40625 -12.472656 26.71875 -14.234375 C 28.03125 -15.992188 28.6875 -18.082031 28.6875 -20.5 C 28.6875 -22.914062 28.148438 -25.316406 27.078125 -27.703125 C 26.003906 -30.085938 24.675781 -32.210938 23.09375 -34.078125 Z M 22.15625 -32.109375 "/></g></g></g><g fill="#737373" fill-opacity="0.302"><g transform="translate(282.330671, 135.734286)"><g><path d="M 64.9375 -35 C 66.457031 -35 67.785156 -34.550781 68.921875 -33.65625 C 70.054688 -32.757812 70.625 -31.414062 70.625 -29.625 C 70.625 -28.71875 70.382812 -27.570312 69.90625 -26.1875 C 69.425781 -24.8125 68.804688 -23.125 68.046875 -21.125 C 65.835938 -15.53125 63.195312 -11.210938 60.125 -8.171875 C 57.050781 -5.140625 53.875 -3.019531 50.59375 -1.8125 C 47.3125 -0.601562 44.222656 0 41.328125 0 C 40.285156 0 38.882812 -0.132812 37.125 -0.40625 C 35.363281 -0.6875 33.601562 -1.222656 31.84375 -2.015625 C 30.082031 -2.804688 28.648438 -4 27.546875 -5.59375 C 25.609375 -3.863281 23.445312 -2.5 21.0625 -1.5 C 18.6875 -0.5 16.289062 0 13.875 0 C 10.84375 0 8.117188 -0.707031 5.703125 -2.125 C 3.285156 -3.539062 1.367188 -5.4375 -0.046875 -7.8125 C -1.460938 -10.195312 -2.171875 -12.804688 -2.171875 -15.640625 C -2.171875 -16.609375 -2.066406 -17.554688 -1.859375 -18.484375 C -1.648438 -19.421875 -1.410156 -20.335938 -1.140625 -21.234375 L 8.59375 -49.09375 C 9.976562 -53.09375 12.328125 -56.039062 15.640625 -57.9375 C 18.953125 -59.84375 22.300781 -60.796875 25.6875 -60.796875 C 28.3125 -60.796875 30.601562 -60.484375 32.5625 -59.859375 C 34.53125 -59.234375 36.066406 -58.578125 37.171875 -57.890625 C 38.003906 -59.203125 39.109375 -60.1875 40.484375 -60.84375 C 41.867188 -61.5 43.285156 -61.828125 44.734375 -61.828125 C 46.671875 -61.828125 48.414062 -61.238281 49.96875 -60.0625 C 51.519531 -58.894531 52.296875 -57.171875 52.296875 -54.890625 C 52.296875 -53.847656 52.085938 -52.707031 51.671875 -51.46875 L 40.078125 -17.921875 C 39.734375 -16.671875 39.5625 -15.664062 39.5625 -14.90625 C 39.5625 -13.1875 40.492188 -12.328125 42.359375 -12.328125 C 43.941406 -12.328125 45.648438 -12.859375 47.484375 -13.921875 C 49.316406 -14.992188 51.128906 -16.769531 52.921875 -19.25 C 54.710938 -21.738281 56.265625 -25.09375 57.578125 -29.3125 C 58.203125 -31.3125 59.222656 -32.757812 60.640625 -33.65625 C 62.054688 -34.550781 63.488281 -35 64.9375 -35 Z M 30.765625 -36.046875 C 31.585938 -38.660156 32 -40.695312 32 -42.15625 C 32 -43.945312 31.550781 -45.304688 30.65625 -46.234375 C 29.757812 -47.171875 28.828125 -47.640625 27.859375 -47.640625 C 27.023438 -47.640625 25.96875 -47.238281 24.6875 -46.4375 C 23.414062 -45.644531 22.296875 -43.664062 21.328125 -40.5 L 14.703125 -19.671875 C 14.566406 -19.191406 14.425781 -18.65625 14.28125 -18.0625 C 14.144531 -17.476562 14.078125 -16.84375 14.078125 -16.15625 C 14.078125 -13.601562 15.21875 -12.328125 17.5 -12.328125 C 18.601562 -12.328125 19.984375 -12.859375 21.640625 -13.921875 C 23.296875 -14.992188 24.675781 -17.222656 25.78125 -20.609375 Z M 30.765625 -36.046875 "/></g></g></g><g fill="#737373" fill-opacity="0.502"><g transform="translate(49.815671, 129.585865)"><g><path d="M 97.96875 -30.65625 C 98.59375 -32.382812 99.507812 -33.644531 100.71875 -34.4375 C 101.925781 -35.226562 103.1875 -35.625 104.5 -35.625 C 106.082031 -35.625 107.507812 -35.125 108.78125 -34.125 C 110.0625 -33.125 110.703125 -31.722656 110.703125 -29.921875 C 110.703125 -29.578125 110.664062 -29.210938 110.59375 -28.828125 C 110.53125 -28.453125 110.429688 -28.0625 110.296875 -27.65625 C 108.148438 -20.957031 105.578125 -15.570312 102.578125 -11.5 C 99.578125 -7.425781 96.28125 -4.488281 92.6875 -2.6875 C 89.09375 -0.894531 85.398438 0 81.609375 0 C 78.296875 0 75.253906 -0.632812 72.484375 -1.90625 C 69.722656 -3.1875 67.515625 -5.035156 65.859375 -7.453125 C 64.203125 -9.867188 63.375 -12.769531 63.375 -16.15625 C 63.375 -18.707031 63.859375 -21.363281 64.828125 -24.125 L 79.328125 -64.203125 C 80.296875 -66.765625 80.226562 -68.835938 79.125 -70.421875 C 78.019531 -72.003906 76.46875 -72.796875 74.46875 -72.796875 C 71.90625 -72.796875 69.625 -71.707031 67.625 -69.53125 C 65.625 -67.363281 64.003906 -64.519531 62.765625 -61 L 43.390625 -6.734375 C 42.566406 -4.378906 41.289062 -2.664062 39.5625 -1.59375 C 37.832031 -0.53125 36.070312 0 34.28125 0 C 32.34375 0 30.597656 -0.601562 29.046875 -1.8125 C 27.492188 -3.019531 26.71875 -4.726562 26.71875 -6.9375 C 26.71875 -8.039062 26.992188 -9.351562 27.546875 -10.875 L 45.671875 -60.6875 C 48.566406 -68.832031 47.253906 -72.90625 41.734375 -72.90625 C 36.972656 -72.90625 33.316406 -69.382812 30.765625 -62.34375 L 10.765625 -6.625 C 9.941406 -4.34375 8.679688 -2.664062 6.984375 -1.59375 C 5.296875 -0.53125 3.554688 0 1.765625 0 C -0.242188 0 -2.023438 -0.617188 -3.578125 -1.859375 C -5.128906 -3.109375 -5.90625 -4.867188 -5.90625 -7.140625 C -5.90625 -7.628906 -5.882812 -8.113281 -5.84375 -8.59375 C -5.8125 -9.082031 -5.691406 -9.566406 -5.484375 -10.046875 L 21.125 -84.609375 C 21.882812 -86.609375 23.125 -87.988281 24.84375 -88.75 C 26.570312 -89.507812 28.195312 -89.890625 29.71875 -89.890625 C 31.71875 -89.890625 33.390625 -89.441406 34.734375 -88.546875 C 36.085938 -87.648438 36.972656 -86.546875 37.390625 -85.234375 C 37.523438 -85.441406 38.078125 -85.925781 39.046875 -86.6875 C 40.015625 -87.445312 41.328125 -88.171875 42.984375 -88.859375 C 44.640625 -89.546875 46.570312 -89.890625 48.78125 -89.890625 C 52.300781 -89.890625 55.007812 -89.234375 56.90625 -87.921875 C 58.800781 -86.609375 60.546875 -84.742188 62.140625 -82.328125 C 64.554688 -84.890625 67.472656 -86.789062 70.890625 -88.03125 C 74.304688 -89.269531 77.566406 -89.890625 80.671875 -89.890625 C 84.191406 -89.890625 87.28125 -89.144531 89.9375 -87.65625 C 92.601562 -86.175781 94.675781 -84.160156 96.15625 -81.609375 C 97.644531 -79.054688 98.390625 -76.15625 98.390625 -72.90625 C 98.390625 -71.457031 98.265625 -70.128906 98.015625 -68.921875 C 97.773438 -67.710938 97.445312 -66.554688 97.03125 -65.453125 L 80.359375 -19.890625 C 80.148438 -19.265625 79.976562 -18.675781 79.84375 -18.125 C 79.707031 -17.570312 79.640625 -17.050781 79.640625 -16.5625 C 79.640625 -15.53125 79.945312 -14.703125 80.5625 -14.078125 C 81.1875 -13.460938 82.019531 -13.15625 83.0625 -13.15625 C 85.476562 -13.15625 88.015625 -14.550781 90.671875 -17.34375 C 93.328125 -20.144531 95.757812 -24.582031 97.96875 -30.65625 Z M 97.96875 -30.65625 "/></g></g></g><g fill="#737373" fill-opacity="0.502"><g transform="translate(144.164017, 129.585865)"><g><path d="M 43.8125 -21.640625 C 44.019531 -21.578125 44.257812 -21.546875 44.53125 -21.546875 C 44.8125 -21.546875 45.050781 -21.546875 45.25 -21.546875 C 48.289062 -21.546875 50.96875 -22.5625 53.28125 -24.59375 C 55.59375 -26.632812 57.300781 -29.242188 58.40625 -32.421875 C 58.957031 -34.347656 59.890625 -35.742188 61.203125 -36.609375 C 62.515625 -37.472656 63.863281 -37.90625 65.25 -37.90625 C 66.757812 -37.90625 68.101562 -37.382812 69.28125 -36.34375 C 70.457031 -35.3125 71.046875 -33.828125 71.046875 -31.890625 C 71.046875 -31.066406 70.875 -30.035156 70.53125 -28.796875 C 69.351562 -25.203125 67.554688 -21.921875 65.140625 -18.953125 C 62.722656 -15.984375 59.804688 -13.617188 56.390625 -11.859375 C 52.972656 -10.097656 49.226562 -9.21875 45.15625 -9.21875 C 43.007812 -9.21875 40.9375 -9.492188 38.9375 -10.046875 C 36.800781 -6.316406 33.988281 -3.707031 30.5 -2.21875 C 27.007812 -0.738281 23.226562 0 19.15625 0 C 15.632812 0 12.375 -0.6875 9.375 -2.0625 C 6.375 -3.445312 3.941406 -5.453125 2.078125 -8.078125 C 0.210938 -10.703125 -0.71875 -13.8125 -0.71875 -17.40625 C -0.71875 -18.570312 -0.613281 -19.773438 -0.40625 -21.015625 C -0.207031 -22.265625 0.132812 -23.546875 0.625 -24.859375 L 8.1875 -46.1875 C 9.289062 -49.289062 10.976562 -51.929688 13.25 -54.109375 C 15.53125 -56.285156 18.15625 -57.941406 21.125 -59.078125 C 24.09375 -60.222656 27.203125 -60.796875 30.453125 -60.796875 C 34.179688 -60.796875 37.546875 -60.066406 40.546875 -58.609375 C 43.546875 -57.160156 45.925781 -55.109375 47.6875 -52.453125 C 49.445312 -49.796875 50.328125 -46.707031 50.328125 -43.1875 C 50.328125 -41.800781 50.050781 -40.035156 49.5 -37.890625 C 48.945312 -35.753906 48.289062 -33.703125 47.53125 -31.734375 C 46.769531 -29.773438 46.082031 -28.34375 45.46875 -27.4375 C 44.769531 -26.40625 44.078125 -25.648438 43.390625 -25.171875 C 43.597656 -24.203125 43.71875 -23.351562 43.75 -22.625 C 43.789062 -21.90625 43.8125 -21.578125 43.8125 -21.640625 Z M 34.171875 -37.59375 C 34.515625 -38.695312 34.820312 -39.816406 35.09375 -40.953125 C 35.375 -42.097656 35.515625 -43.117188 35.515625 -44.015625 C 35.515625 -45.191406 35.03125 -46.242188 34.0625 -47.171875 C 33.101562 -48.109375 31.828125 -48.578125 30.234375 -48.578125 C 28.648438 -48.578125 27.0625 -48.109375 25.46875 -47.171875 C 23.882812 -46.242188 22.78125 -44.914062 22.15625 -43.1875 L 14.8125 -22.15625 C 14.601562 -21.675781 14.394531 -20.988281 14.1875 -20.09375 C 13.976562 -19.195312 13.875 -18.265625 13.875 -17.296875 C 13.875 -16.054688 14.21875 -14.914062 14.90625 -13.875 C 15.601562 -12.84375 16.953125 -12.328125 18.953125 -12.328125 C 20.535156 -12.328125 22.015625 -12.773438 23.390625 -13.671875 C 24.773438 -14.566406 25.816406 -15.910156 26.515625 -17.703125 C 25.546875 -18.535156 24.679688 -19.484375 23.921875 -20.546875 C 23.160156 -21.617188 22.75 -23.019531 22.6875 -24.75 C 22.6875 -26.820312 23.1875 -28.664062 24.1875 -30.28125 C 25.1875 -31.90625 26.515625 -33.148438 28.171875 -34.015625 C 29.828125 -34.878906 31.585938 -35.207031 33.453125 -35 C 33.515625 -35.414062 33.613281 -35.832031 33.75 -36.25 C 33.894531 -36.664062 34.035156 -37.113281 34.171875 -37.59375 Z M 34.171875 -37.59375 "/></g></g></g><g fill="#737373" fill-opacity="0.502"><g transform="translate(198.225299, 129.585865)"><g><path d="M 27.859375 -70.3125 C 25.515625 -70.3125 23.507812 -71.15625 21.84375 -72.84375 C 20.1875 -74.539062 19.359375 -76.566406 19.359375 -78.921875 C 19.359375 -81.265625 20.1875 -83.242188 21.84375 -84.859375 C 23.507812 -86.484375 25.515625 -87.296875 27.859375 -87.296875 C 30.203125 -87.296875 32.203125 -86.484375 33.859375 -84.859375 C 35.515625 -83.242188 36.34375 -81.265625 36.34375 -78.921875 C 36.34375 -76.566406 35.515625 -74.539062 33.859375 -72.84375 C 32.203125 -71.15625 30.203125 -70.3125 27.859375 -70.3125 Z M 13.875 -17.5 C 13.664062 -16.875 13.5625 -16.320312 13.5625 -15.84375 C 13.5625 -14.875 13.921875 -14.046875 14.640625 -13.359375 C 15.367188 -12.671875 16.320312 -12.328125 17.5 -12.328125 C 19.570312 -12.328125 21.898438 -13.601562 24.484375 -16.15625 C 27.078125 -18.707031 29.582031 -23.332031 32 -30.03125 C 32.625 -31.625 33.570312 -32.796875 34.84375 -33.546875 C 36.125 -34.304688 37.457031 -34.6875 38.84375 -34.6875 C 40.425781 -34.6875 41.851562 -34.21875 43.125 -33.28125 C 44.40625 -32.351562 45.046875 -31.097656 45.046875 -29.515625 C 45.046875 -28.890625 44.941406 -28.269531 44.734375 -27.65625 C 42.316406 -20.539062 39.535156 -14.960938 36.390625 -10.921875 C 33.253906 -6.890625 29.941406 -4.0625 26.453125 -2.4375 C 22.972656 -0.8125 19.539062 0 16.15625 0 C 12.976562 0 10.0625 -0.601562 7.40625 -1.8125 C 4.75 -3.019531 2.609375 -4.757812 0.984375 -7.03125 C -0.640625 -9.3125 -1.453125 -12.078125 -1.453125 -15.328125 C -1.453125 -16.222656 -1.28125 -17.289062 -0.9375 -18.53125 C -0.59375 -19.78125 -0.28125 -20.921875 0 -21.953125 C 1.101562 -25.203125 2.289062 -28.65625 3.5625 -32.3125 C 4.84375 -35.96875 6.125 -39.625 7.40625 -43.28125 C 8.6875 -46.945312 9.878906 -50.398438 10.984375 -53.640625 C 11.804688 -56.054688 12.992188 -57.851562 14.546875 -59.03125 C 16.097656 -60.207031 17.671875 -60.796875 19.265625 -60.796875 C 21.054688 -60.796875 22.660156 -60.207031 24.078125 -59.03125 C 25.492188 -57.851562 26.203125 -56.128906 26.203125 -53.859375 C 26.203125 -53.367188 26.097656 -52.78125 25.890625 -52.09375 C 25.679688 -51.40625 25.472656 -50.710938 25.265625 -50.015625 Z M 13.875 -17.5 "/></g></g></g><g fill="#737373" fill-opacity="0.502"><g transform="translate(226.809427, 129.585865)"><g><path d="M 54.984375 -29.3125 C 55.535156 -30.832031 56.378906 -31.914062 57.515625 -32.5625 C 58.660156 -33.21875 59.859375 -33.546875 61.109375 -33.546875 C 62.765625 -33.546875 64.296875 -33.0625 65.703125 -32.09375 C 67.117188 -31.132812 67.828125 -29.894531 67.828125 -28.375 C 67.828125 -28.164062 67.828125 -27.941406 67.828125 -27.703125 C 67.828125 -27.460938 67.757812 -27.238281 67.625 -27.03125 C 65.207031 -20.050781 61.890625 -14.539062 57.671875 -10.5 C 53.460938 -6.46875 48.664062 -3.585938 43.28125 -1.859375 C 37.90625 -0.140625 32.210938 0.71875 26.203125 0.71875 C 20.128906 0.71875 14.96875 -0.0703125 10.71875 -1.65625 C 6.46875 -3.238281 3.238281 -5.394531 1.03125 -8.125 C -1.175781 -10.851562 -2.28125 -13.910156 -2.28125 -17.296875 C -2.28125 -19.503906 -1.898438 -21.742188 -1.140625 -24.015625 C -0.378906 -26.296875 0.773438 -28.316406 2.328125 -30.078125 C 3.878906 -31.835938 5.796875 -32.992188 8.078125 -33.546875 C 10.148438 -37.421875 12.253906 -41.34375 14.390625 -45.3125 C 16.535156 -49.28125 18.609375 -53.234375 20.609375 -57.171875 C 21.578125 -59.171875 22.972656 -60.671875 24.796875 -61.671875 C 26.628906 -62.671875 28.515625 -63.171875 30.453125 -63.171875 C 33.066406 -63.171875 35.148438 -62.289062 36.703125 -60.53125 C 38.265625 -58.769531 39.046875 -56.785156 39.046875 -54.578125 C 39.046875 -53.054688 38.546875 -51.550781 37.546875 -50.0625 C 36.546875 -48.582031 35.316406 -47.53125 33.859375 -46.90625 C 34.066406 -45.320312 34.617188 -43.664062 35.515625 -41.9375 C 36.421875 -40.21875 37.390625 -38.457031 38.421875 -36.65625 C 39.867188 -34.238281 41.25 -31.628906 42.5625 -28.828125 C 43.875 -26.035156 44.53125 -23.125 44.53125 -20.09375 C 44.53125 -19.40625 44.492188 -18.75 44.421875 -18.125 C 44.359375 -17.5 44.257812 -16.84375 44.125 -16.15625 C 46.539062 -17.539062 48.644531 -19.316406 50.4375 -21.484375 C 52.226562 -23.660156 53.742188 -26.269531 54.984375 -29.3125 Z M 22.15625 -32.109375 C 23.0625 -31.210938 23.71875 -30.191406 24.125 -29.046875 C 24.539062 -27.910156 24.75 -26.753906 24.75 -25.578125 C 24.75 -23.023438 23.921875 -20.695312 22.265625 -18.59375 C 20.609375 -16.488281 18.257812 -15.4375 15.21875 -15.4375 C 14.875 -15.4375 14.492188 -15.453125 14.078125 -15.484375 C 13.671875 -15.515625 13.257812 -15.566406 12.84375 -15.640625 C 13.394531 -14.328125 14.394531 -13.289062 15.84375 -12.53125 C 17.289062 -11.769531 18.878906 -11.390625 20.609375 -11.390625 C 23.367188 -11.523438 25.40625 -12.472656 26.71875 -14.234375 C 28.03125 -15.992188 28.6875 -18.082031 28.6875 -20.5 C 28.6875 -22.914062 28.148438 -25.316406 27.078125 -27.703125 C 26.003906 -30.085938 24.675781 -32.210938 23.09375 -34.078125 Z M 22.15625 -32.109375 "/></g></g></g><g fill="#737373" fill-opacity="0.502"><g transform="translate(278.48871, 129.585865)"><g><path d="M 64.9375 -35 C 66.457031 -35 67.785156 -34.550781 68.921875 -33.65625 C 70.054688 -32.757812 70.625 -31.414062 70.625 -29.625 C 70.625 -28.71875 70.382812 -27.570312 69.90625 -26.1875 C 69.425781 -24.8125 68.804688 -23.125 68.046875 -21.125 C 65.835938 -15.53125 63.195312 -11.210938 60.125 -8.171875 C 57.050781 -5.140625 53.875 -3.019531 50.59375 -1.8125 C 47.3125 -0.601562 44.222656 0 41.328125 0 C 40.285156 0 38.882812 -0.132812 37.125 -0.40625 C 35.363281 -0.6875 33.601562 -1.222656 31.84375 -2.015625 C 30.082031 -2.804688 28.648438 -4 27.546875 -5.59375 C 25.609375 -3.863281 23.445312 -2.5 21.0625 -1.5 C 18.6875 -0.5 16.289062 0 13.875 0 C 10.84375 0 8.117188 -0.707031 5.703125 -2.125 C 3.285156 -3.539062 1.367188 -5.4375 -0.046875 -7.8125 C -1.460938 -10.195312 -2.171875 -12.804688 -2.171875 -15.640625 C -2.171875 -16.609375 -2.066406 -17.554688 -1.859375 -18.484375 C -1.648438 -19.421875 -1.410156 -20.335938 -1.140625 -21.234375 L 8.59375 -49.09375 C 9.976562 -53.09375 12.328125 -56.039062 15.640625 -57.9375 C 18.953125 -59.84375 22.300781 -60.796875 25.6875 -60.796875 C 28.3125 -60.796875 30.601562 -60.484375 32.5625 -59.859375 C 34.53125 -59.234375 36.066406 -58.578125 37.171875 -57.890625 C 38.003906 -59.203125 39.109375 -60.1875 40.484375 -60.84375 C 41.867188 -61.5 43.285156 -61.828125 44.734375 -61.828125 C 46.671875 -61.828125 48.414062 -61.238281 49.96875 -60.0625 C 51.519531 -58.894531 52.296875 -57.171875 52.296875 -54.890625 C 52.296875 -53.847656 52.085938 -52.707031 51.671875 -51.46875 L 40.078125 -17.921875 C 39.734375 -16.671875 39.5625 -15.664062 39.5625 -14.90625 C 39.5625 -13.1875 40.492188 -12.328125 42.359375 -12.328125 C 43.941406 -12.328125 45.648438 -12.859375 47.484375 -13.921875 C 49.316406 -14.992188 51.128906 -16.769531 52.921875 -19.25 C 54.710938 -21.738281 56.265625 -25.09375 57.578125 -29.3125 C 58.203125 -31.3125 59.222656 -32.757812 60.640625 -33.65625 C 62.054688 -34.550781 63.488281 -35 64.9375 -35 Z M 30.765625 -36.046875 C 31.585938 -38.660156 32 -40.695312 32 -42.15625 C 32 -43.945312 31.550781 -45.304688 30.65625 -46.234375 C 29.757812 -47.171875 28.828125 -47.640625 27.859375 -47.640625 C 27.023438 -47.640625 25.96875 -47.238281 24.6875 -46.4375 C 23.414062 -45.644531 22.296875 -43.664062 21.328125 -40.5 L 14.703125 -19.671875 C 14.566406 -19.191406 14.425781 -18.65625 14.28125 -18.0625 C 14.144531 -17.476562 14.078125 -16.84375 14.078125 -16.15625 C 14.078125 -13.601562 15.21875 -12.328125 17.5 -12.328125 C 18.601562 -12.328125 19.984375 -12.859375 21.640625 -13.921875 C 23.296875 -14.992188 24.675781 -17.222656 25.78125 -20.609375 Z M 30.765625 -36.046875 "/></g></g></g><g fill="#ffffff" fill-opacity="1"><g transform="translate(45.973711, 123.437441)"><g><path d="M 97.96875 -30.65625 C 98.59375 -32.382812 99.507812 -33.644531 100.71875 -34.4375 C 101.925781 -35.226562 103.1875 -35.625 104.5 -35.625 C 106.082031 -35.625 107.507812 -35.125 108.78125 -34.125 C 110.0625 -33.125 110.703125 -31.722656 110.703125 -29.921875 C 110.703125 -29.578125 110.664062 -29.210938 110.59375 -28.828125 C 110.53125 -28.453125 110.429688 -28.0625 110.296875 -27.65625 C 108.148438 -20.957031 105.578125 -15.570312 102.578125 -11.5 C 99.578125 -7.425781 96.28125 -4.488281 92.6875 -2.6875 C 89.09375 -0.894531 85.398438 0 81.609375 0 C 78.296875 0 75.253906 -0.632812 72.484375 -1.90625 C 69.722656 -3.1875 67.515625 -5.035156 65.859375 -7.453125 C 64.203125 -9.867188 63.375 -12.769531 63.375 -16.15625 C 63.375 -18.707031 63.859375 -21.363281 64.828125 -24.125 L 79.328125 -64.203125 C 80.296875 -66.765625 80.226562 -68.835938 79.125 -70.421875 C 78.019531 -72.003906 76.46875 -72.796875 74.46875 -72.796875 C 71.90625 -72.796875 69.625 -71.707031 67.625 -69.53125 C 65.625 -67.363281 64.003906 -64.519531 62.765625 -61 L 43.390625 -6.734375 C 42.566406 -4.378906 41.289062 -2.664062 39.5625 -1.59375 C 37.832031 -0.53125 36.070312 0 34.28125 0 C 32.34375 0 30.597656 -0.601562 29.046875 -1.8125 C 27.492188 -3.019531 26.71875 -4.726562 26.71875 -6.9375 C 26.71875 -8.039062 26.992188 -9.351562 27.546875 -10.875 L 45.671875 -60.6875 C 48.566406 -68.832031 47.253906 -72.90625 41.734375 -72.90625 C 36.972656 -72.90625 33.316406 -69.382812 30.765625 -62.34375 L 10.765625 -6.625 C 9.941406 -4.34375 8.679688 -2.664062 6.984375 -1.59375 C 5.296875 -0.53125 3.554688 0 1.765625 0 C -0.242188 0 -2.023438 -0.617188 -3.578125 -1.859375 C -5.128906 -3.109375 -5.90625 -4.867188 -5.90625 -7.140625 C -5.90625 -7.628906 -5.882812 -8.113281 -5.84375 -8.59375 C -5.8125 -9.082031 -5.691406 -9.566406 -5.484375 -10.046875 L 21.125 -84.609375 C 21.882812 -86.609375 23.125 -87.988281 24.84375 -88.75 C 26.570312 -89.507812 28.195312 -89.890625 29.71875 -89.890625 C 31.71875 -89.890625 33.390625 -89.441406 34.734375 -88.546875 C 36.085938 -87.648438 36.972656 -86.546875 37.390625 -85.234375 C 37.523438 -85.441406 38.078125 -85.925781 39.046875 -86.6875 C 40.015625 -87.445312 41.328125 -88.171875 42.984375 -88.859375 C 44.640625 -89.546875 46.570312 -89.890625 48.78125 -89.890625 C 52.300781 -89.890625 55.007812 -89.234375 56.90625 -87.921875 C 58.800781 -86.609375 60.546875 -84.742188 62.140625 -82.328125 C 64.554688 -84.890625 67.472656 -86.789062 70.890625 -88.03125 C 74.304688 -89.269531 77.566406 -89.890625 80.671875 -89.890625 C 84.191406 -89.890625 87.28125 -89.144531 89.9375 -87.65625 C 92.601562 -86.175781 94.675781 -84.160156 96.15625 -81.609375 C 97.644531 -79.054688 98.390625 -76.15625 98.390625 -72.90625 C 98.390625 -71.457031 98.265625 -70.128906 98.015625 -68.921875 C 97.773438 -67.710938 97.445312 -66.554688 97.03125 -65.453125 L 80.359375 -19.890625 C 80.148438 -19.265625 79.976562 -18.675781 79.84375 -18.125 C 79.707031 -17.570312 79.640625 -17.050781 79.640625 -16.5625 C 79.640625 -15.53125 79.945312 -14.703125 80.5625 -14.078125 C 81.1875 -13.460938 82.019531 -13.15625 83.0625 -13.15625 C 85.476562 -13.15625 88.015625 -14.550781 90.671875 -17.34375 C 93.328125 -20.144531 95.757812 -24.582031 97.96875 -30.65625 Z M 97.96875 -30.65625 "/></g></g></g><g fill="#ffffff" fill-opacity="1"><g transform="translate(140.322057, 123.437441)"><g><path d="M 43.8125 -21.640625 C 44.019531 -21.578125 44.257812 -21.546875 44.53125 -21.546875 C 44.8125 -21.546875 45.050781 -21.546875 45.25 -21.546875 C 48.289062 -21.546875 50.96875 -22.5625 53.28125 -24.59375 C 55.59375 -26.632812 57.300781 -29.242188 58.40625 -32.421875 C 58.957031 -34.347656 59.890625 -35.742188 61.203125 -36.609375 C 62.515625 -37.472656 63.863281 -37.90625 65.25 -37.90625 C 66.757812 -37.90625 68.101562 -37.382812 69.28125 -36.34375 C 70.457031 -35.3125 71.046875 -33.828125 71.046875 -31.890625 C 71.046875 -31.066406 70.875 -30.035156 70.53125 -28.796875 C 69.351562 -25.203125 67.554688 -21.921875 65.140625 -18.953125 C 62.722656 -15.984375 59.804688 -13.617188 56.390625 -11.859375 C 52.972656 -10.097656 49.226562 -9.21875 45.15625 -9.21875 C 43.007812 -9.21875 40.9375 -9.492188 38.9375 -10.046875 C 36.800781 -6.316406 33.988281 -3.707031 30.5 -2.21875 C 27.007812 -0.738281 23.226562 0 19.15625 0 C 15.632812 0 12.375 -0.6875 9.375 -2.0625 C 6.375 -3.445312 3.941406 -5.453125 2.078125 -8.078125 C 0.210938 -10.703125 -0.71875 -13.8125 -0.71875 -17.40625 C -0.71875 -18.570312 -0.613281 -19.773438 -0.40625 -21.015625 C -0.207031 -22.265625 0.132812 -23.546875 0.625 -24.859375 L 8.1875 -46.1875 C 9.289062 -49.289062 10.976562 -51.929688 13.25 -54.109375 C 15.53125 -56.285156 18.15625 -57.941406 21.125 -59.078125 C 24.09375 -60.222656 27.203125 -60.796875 30.453125 -60.796875 C 34.179688 -60.796875 37.546875 -60.066406 40.546875 -58.609375 C 43.546875 -57.160156 45.925781 -55.109375 47.6875 -52.453125 C 49.445312 -49.796875 50.328125 -46.707031 50.328125 -43.1875 C 50.328125 -41.800781 50.050781 -40.035156 49.5 -37.890625 C 48.945312 -35.753906 48.289062 -33.703125 47.53125 -31.734375 C 46.769531 -29.773438 46.082031 -28.34375 45.46875 -27.4375 C 44.769531 -26.40625 44.078125 -25.648438 43.390625 -25.171875 C 43.597656 -24.203125 43.71875 -23.351562 43.75 -22.625 C 43.789062 -21.90625 43.8125 -21.578125 43.8125 -21.640625 Z M 34.171875 -37.59375 C 34.515625 -38.695312 34.820312 -39.816406 35.09375 -40.953125 C 35.375 -42.097656 35.515625 -43.117188 35.515625 -44.015625 C 35.515625 -45.191406 35.03125 -46.242188 34.0625 -47.171875 C 33.101562 -48.109375 31.828125 -48.578125 30.234375 -48.578125 C 28.648438 -48.578125 27.0625 -48.109375 25.46875 -47.171875 C 23.882812 -46.242188 22.78125 -44.914062 22.15625 -43.1875 L 14.8125 -22.15625 C 14.601562 -21.675781 14.394531 -20.988281 14.1875 -20.09375 C 13.976562 -19.195312 13.875 -18.265625 13.875 -17.296875 C 13.875 -16.054688 14.21875 -14.914062 14.90625 -13.875 C 15.601562 -12.84375 16.953125 -12.328125 18.953125 -12.328125 C 20.535156 -12.328125 22.015625 -12.773438 23.390625 -13.671875 C 24.773438 -14.566406 25.816406 -15.910156 26.515625 -17.703125 C 25.546875 -18.535156 24.679688 -19.484375 23.921875 -20.546875 C 23.160156 -21.617188 22.75 -23.019531 22.6875 -24.75 C 22.6875 -26.820312 23.1875 -28.664062 24.1875 -30.28125 C 25.1875 -31.90625 26.515625 -33.148438 28.171875 -34.015625 C 29.828125 -34.878906 31.585938 -35.207031 33.453125 -35 C 33.515625 -35.414062 33.613281 -35.832031 33.75 -36.25 C 33.894531 -36.664062 34.035156 -37.113281 34.171875 -37.59375 Z M 34.171875 -37.59375 "/></g></g></g><g fill="#ffffff" fill-opacity="1"><g transform="translate(194.383339, 123.437441)"><g><path d="M 27.859375 -70.3125 C 25.515625 -70.3125 23.507812 -71.15625 21.84375 -72.84375 C 20.1875 -74.539062 19.359375 -76.566406 19.359375 -78.921875 C 19.359375 -81.265625 20.1875 -83.242188 21.84375 -84.859375 C 23.507812 -86.484375 25.515625 -87.296875 27.859375 -87.296875 C 30.203125 -87.296875 32.203125 -86.484375 33.859375 -84.859375 C 35.515625 -83.242188 36.34375 -81.265625 36.34375 -78.921875 C 36.34375 -76.566406 35.515625 -74.539062 33.859375 -72.84375 C 32.203125 -71.15625 30.203125 -70.3125 27.859375 -70.3125 Z M 13.875 -17.5 C 13.664062 -16.875 13.5625 -16.320312 13.5625 -15.84375 C 13.5625 -14.875 13.921875 -14.046875 14.640625 -13.359375 C 15.367188 -12.671875 16.320312 -12.328125 17.5 -12.328125 C 19.570312 -12.328125 21.898438 -13.601562 24.484375 -16.15625 C 27.078125 -18.707031 29.582031 -23.332031 32 -30.03125 C 32.625 -31.625 33.570312 -32.796875 34.84375 -33.546875 C 36.125 -34.304688 37.457031 -34.6875 38.84375 -34.6875 C 40.425781 -34.6875 41.851562 -34.21875 43.125 -33.28125 C 44.40625 -32.351562 45.046875 -31.097656 45.046875 -29.515625 C 45.046875 -28.890625 44.941406 -28.269531 44.734375 -27.65625 C 42.316406 -20.539062 39.535156 -14.960938 36.390625 -10.921875 C 33.253906 -6.890625 29.941406 -4.0625 26.453125 -2.4375 C 22.972656 -0.8125 19.539062 0 16.15625 0 C 12.976562 0 10.0625 -0.601562 7.40625 -1.8125 C 4.75 -3.019531 2.609375 -4.757812 0.984375 -7.03125 C -0.640625 -9.3125 -1.453125 -12.078125 -1.453125 -15.328125 C -1.453125 -16.222656 -1.28125 -17.289062 -0.9375 -18.53125 C -0.59375 -19.78125 -0.28125 -20.921875 0 -21.953125 C 1.101562 -25.203125 2.289062 -28.65625 3.5625 -32.3125 C 4.84375 -35.96875 6.125 -39.625 7.40625 -43.28125 C 8.6875 -46.945312 9.878906 -50.398438 10.984375 -53.640625 C 11.804688 -56.054688 12.992188 -57.851562 14.546875 -59.03125 C 16.097656 -60.207031 17.671875 -60.796875 19.265625 -60.796875 C 21.054688 -60.796875 22.660156 -60.207031 24.078125 -59.03125 C 25.492188 -57.851562 26.203125 -56.128906 26.203125 -53.859375 C 26.203125 -53.367188 26.097656 -52.78125 25.890625 -52.09375 C 25.679688 -51.40625 25.472656 -50.710938 25.265625 -50.015625 Z M 13.875 -17.5 "/></g></g></g><g fill="#ffffff" fill-opacity="1"><g transform="translate(222.967467, 123.437441)"><g><path d="M 54.984375 -29.3125 C 55.535156 -30.832031 56.378906 -31.914062 57.515625 -32.5625 C 58.660156 -33.21875 59.859375 -33.546875 61.109375 -33.546875 C 62.765625 -33.546875 64.296875 -33.0625 65.703125 -32.09375 C 67.117188 -31.132812 67.828125 -29.894531 67.828125 -28.375 C 67.828125 -28.164062 67.828125 -27.941406 67.828125 -27.703125 C 67.828125 -27.460938 67.757812 -27.238281 67.625 -27.03125 C 65.207031 -20.050781 61.890625 -14.539062 57.671875 -10.5 C 53.460938 -6.46875 48.664062 -3.585938 43.28125 -1.859375 C 37.90625 -0.140625 32.210938 0.71875 26.203125 0.71875 C 20.128906 0.71875 14.96875 -0.0703125 10.71875 -1.65625 C 6.46875 -3.238281 3.238281 -5.394531 1.03125 -8.125 C -1.175781 -10.851562 -2.28125 -13.910156 -2.28125 -17.296875 C -2.28125 -19.503906 -1.898438 -21.742188 -1.140625 -24.015625 C -0.378906 -26.296875 0.773438 -28.316406 2.328125 -30.078125 C 3.878906 -31.835938 5.796875 -32.992188 8.078125 -33.546875 C 10.148438 -37.421875 12.253906 -41.34375 14.390625 -45.3125 C 16.535156 -49.28125 18.609375 -53.234375 20.609375 -57.171875 C 21.578125 -59.171875 22.972656 -60.671875 24.796875 -61.671875 C 26.628906 -62.671875 28.515625 -63.171875 30.453125 -63.171875 C 33.066406 -63.171875 35.148438 -62.289062 36.703125 -60.53125 C 38.265625 -58.769531 39.046875 -56.785156 39.046875 -54.578125 C 39.046875 -53.054688 38.546875 -51.550781 37.546875 -50.0625 C 36.546875 -48.582031 35.316406 -47.53125 33.859375 -46.90625 C 34.066406 -45.320312 34.617188 -43.664062 35.515625 -41.9375 C 36.421875 -40.21875 37.390625 -38.457031 38.421875 -36.65625 C 39.867188 -34.238281 41.25 -31.628906 42.5625 -28.828125 C 43.875 -26.035156 44.53125 -23.125 44.53125 -20.09375 C 44.53125 -19.40625 44.492188 -18.75 44.421875 -18.125 C 44.359375 -17.5 44.257812 -16.84375 44.125 -16.15625 C 46.539062 -17.539062 48.644531 -19.316406 50.4375 -21.484375 C 52.226562 -23.660156 53.742188 -26.269531 54.984375 -29.3125 Z M 22.15625 -32.109375 C 23.0625 -31.210938 23.71875 -30.191406 24.125 -29.046875 C 24.539062 -27.910156 24.75 -26.753906 24.75 -25.578125 C 24.75 -23.023438 23.921875 -20.695312 22.265625 -18.59375 C 20.609375 -16.488281 18.257812 -15.4375 15.21875 -15.4375 C 14.875 -15.4375 14.492188 -15.453125 14.078125 -15.484375 C 13.671875 -15.515625 13.257812 -15.566406 12.84375 -15.640625 C 13.394531 -14.328125 14.394531 -13.289062 15.84375 -12.53125 C 17.289062 -11.769531 18.878906 -11.390625 20.609375 -11.390625 C 23.367188 -11.523438 25.40625 -12.472656 26.71875 -14.234375 C 28.03125 -15.992188 28.6875 -18.082031 28.6875 -20.5 C 28.6875 -22.914062 28.148438 -25.316406 27.078125 -27.703125 C 26.003906 -30.085938 24.675781 -32.210938 23.09375 -34.078125 Z M 22.15625 -32.109375 "/></g></g></g><g fill="#ffffff" fill-opacity="1"><g transform="translate(274.64675, 123.437441)"><g><path d="M 64.9375 -35 C 66.457031 -35 67.785156 -34.550781 68.921875 -33.65625 C 70.054688 -32.757812 70.625 -31.414062 70.625 -29.625 C 70.625 -28.71875 70.382812 -27.570312 69.90625 -26.1875 C 69.425781 -24.8125 68.804688 -23.125 68.046875 -21.125 C 65.835938 -15.53125 63.195312 -11.210938 60.125 -8.171875 C 57.050781 -5.140625 53.875 -3.019531 50.59375 -1.8125 C 47.3125 -0.601562 44.222656 0 41.328125 0 C 40.285156 0 38.882812 -0.132812 37.125 -0.40625 C 35.363281 -0.6875 33.601562 -1.222656 31.84375 -2.015625 C 30.082031 -2.804688 28.648438 -4 27.546875 -5.59375 C 25.609375 -3.863281 23.445312 -2.5 21.0625 -1.5 C 18.6875 -0.5 16.289062 0 13.875 0 C 10.84375 0 8.117188 -0.707031 5.703125 -2.125 C 3.285156 -3.539062 1.367188 -5.4375 -0.046875 -7.8125 C -1.460938 -10.195312 -2.171875 -12.804688 -2.171875 -15.640625 C -2.171875 -16.609375 -2.066406 -17.554688 -1.859375 -18.484375 C -1.648438 -19.421875 -1.410156 -20.335938 -1.140625 -21.234375 L 8.59375 -49.09375 C 9.976562 -53.09375 12.328125 -56.039062 15.640625 -57.9375 C 18.953125 -59.84375 22.300781 -60.796875 25.6875 -60.796875 C 28.3125 -60.796875 30.601562 -60.484375 32.5625 -59.859375 C 34.53125 -59.234375 36.066406 -58.578125 37.171875 -57.890625 C 38.003906 -59.203125 39.109375 -60.1875 40.484375 -60.84375 C 41.867188 -61.5 43.285156 -61.828125 44.734375 -61.828125 C 46.671875 -61.828125 48.414062 -61.238281 49.96875 -60.0625 C 51.519531 -58.894531 52.296875 -57.171875 52.296875 -54.890625 C 52.296875 -53.847656 52.085938 -52.707031 51.671875 -51.46875 L 40.078125 -17.921875 C 39.734375 -16.671875 39.5625 -15.664062 39.5625 -14.90625 C 39.5625 -13.1875 40.492188 -12.328125 42.359375 -12.328125 C 43.941406 -12.328125 45.648438 -12.859375 47.484375 -13.921875 C 49.316406 -14.992188 51.128906 -16.769531 52.921875 -19.25 C 54.710938 -21.738281 56.265625 -25.09375 57.578125 -29.3125 C 58.203125 -31.3125 59.222656 -32.757812 60.640625 -33.65625 C 62.054688 -34.550781 63.488281 -35 64.9375 -35 Z M 30.765625 -36.046875 C 31.585938 -38.660156 32 -40.695312 32 -42.15625 C 32 -43.945312 31.550781 -45.304688 30.65625 -46.234375 C 29.757812 -47.171875 28.828125 -47.640625 27.859375 -47.640625 C 27.023438 -47.640625 25.96875 -47.238281 24.6875 -46.4375 C 23.414062 -45.644531 22.296875 -43.664062 21.328125 -40.5 L 14.703125 -19.671875 C 14.566406 -19.191406 14.425781 -18.65625 14.28125 -18.0625 C 14.144531 -17.476562 14.078125 -16.84375 14.078125 -16.15625 C 14.078125 -13.601562 15.21875 -12.328125 17.5 -12.328125 C 18.601562 -12.328125 19.984375 -12.859375 21.640625 -13.921875 C 23.296875 -14.992188 24.675781 -17.222656 25.78125 -20.609375 Z M 30.765625 -36.046875 "/></g></g></g></svg>